PathFileType	4	(X/Y/Z)	C:\Users\dbl\Desktop\20210112\20210112\bx_n_5_1801.trc
DataRate	CameraRate	NumFrames	NumMarkers	Units	OrigDataRate	OrigDataStartFrame	OrigNumFrames
50.00	50.00	       8	43	mm	50.00	346	       460
Frame#	Time	Top.Head			R.Acromium			L.Acromium			Sternum			R.ASIS			L.ASIS			V.Sacral			R.Thigh.Upper			R.Thigh.Front			R.Thigh.Rear			R.Knee.Lat			R.Knee.Med			R.Shank.Upper			R.Shank.Front			R.Shank.Rear			R.Ankle.Lat			R.Midfoot.Lat			R.Toe.Lat			R.Toe.Tip			R.Toe.Med			R.Ankle.Med			R.Midfoot.Sup			R.Heel			L.Thigh.Upper			L.Thigh.Front			L.Thigh.Rear			L.Knee.Lat			L.Knee.Med			L.Shank.Upper			L.Shank.Front			L.Shank.Rear			L.Ankle.Lat			L.Midfoot.Lat			L.Toe.Lat			L.Toe.Tip			L.Toe.Med			L.Ankle.Med			L.Midfoot.Sup			L.Heel			origin1 front left			origin2 front right			origin 3 back right			origin 4 back leftt			
		X1	Y1	Z1	X2	Y2	Z2	X3	Y3	Z3	X4	Y4	Z4	X5	Y5	Z5	X6	Y6	Z6	X7	Y7	Z7	X8	Y8	Z8	X9	Y9	Z9	X10	Y10	Z10	X11	Y11	Z11	X12	Y12	Z12	X13	Y13	Z13	X14	Y14	Z14	X15	Y15	Z15	X16	Y16	Z16	X17	Y17	Z17	X18	Y18	Z18	X19	Y19	Z19	X20	Y20	Z20	X21	Y21	Z21	X22	Y22	Z22	X23	Y23	Z23	X24	Y24	Z24	X25	Y25	Z25	X26	Y26	Z26	X27	Y27	Z27	X28	Y28	Z28	X29	Y29	Z29	X30	Y30	Z30	X31	Y31	Z31	X32	Y32	Z32	X33	Y33	Z33	X34	Y34	Z34	X35	Y35	Z35	X36	Y36	Z36	X37	Y37	Z37	X38	Y38	Z38	X39	Y39	Z39	X40	Y40	Z40	X41	Y41	Z41	X42	Y42	Z42	X43	Y43	Z43	

346	6.900	-374.83966	116.44814	1481.08777	-511.24304	-68.66606	1220.11743	-518.15479	272.55188	1199.89941	-571.92365	86.31571	1008.87146	-791.70691	-0.05140	862.14813	-776.10602	217.17584	877.10156	-986.89929	89.68447	895.12396	-798.42670	-90.58143	749.57324	-683.21356	-36.14124	767.89362	-715.78809	-85.28586	667.49951	-606.89740	-61.93951	571.06927	-564.15875	47.10070	555.19250	-595.38770	-60.38830	531.38287	-547.23706	-13.15325	480.59756	-660.01208	-60.41603	467.84332	-749.75140	-15.31922	208.08754	-650.13702	-68.96492	161.60808	-608.27661	-75.63443	158.36598	-547.41144	-32.56841	162.99689	-596.84088	24.28990	168.44086	-704.81390	72.15165	211.11646	-670.29602	53.85244	156.33076	-787.14233	46.90723	178.56076	-797.15619	280.67633	742.60339	-659.52374	221.13414	762.37567	-686.80640	278.38580	659.44934	-614.97253	254.63022	580.66888	-546.51733	150.10646	548.88086	-585.74945	255.79076	537.94098	-535.62830	212.31085	492.38565	-642.23511	261.63123	479.24948	-759.30328	224.60242	207.28581	-660.59796	297.52002	158.60107	-624.48438	305.45871	158.91949	-554.65765	257.08728	163.72470	-591.11206	218.54926	172.95023	-701.74567	149.77499	207.25308	-673.88373	171.63965	153.23529	-791.53436	173.95877	188.64606	-528.37012	304.14697	146.28499	-517.87360	-72.74294	143.54416	-875.98169	-78.66888	141.20197	-882.59473	296.12170	144.60193	
347	6.920	-382.67340	115.65234	1500.20483	-515.29224	-69.80830	1236.43726	-521.15796	272.34622	1216.18945	-571.41833	85.71524	1024.68555	-787.22516	-3.18730	872.47626	-773.02576	216.48300	887.16663	-983.76343	88.73966	903.84998	-795.79492	-90.96798	755.91217	-680.28693	-36.92865	771.38037	-715.26276	-85.37589	671.62378	-608.70319	-61.71790	572.82288	-565.92810	46.66134	556.54858	-597.53351	-60.08171	532.59650	-549.31555	-13.26425	481.65994	-661.96814	-60.19788	468.63770	-750.07013	-15.51484	207.93396	-650.21045	-69.07668	161.53467	-608.31818	-75.80124	158.24309	-547.48254	-32.60592	162.97717	-596.94550	24.08799	168.59900	-704.99957	71.90737	211.15778	-670.36243	53.65454	156.39891	-787.12158	46.76361	178.43291	-795.14258	279.81445	749.57245	-657.11810	220.66693	765.94690	-687.16370	277.13336	663.49060	-617.07080	253.86392	583.12994	-548.98468	149.99374	550.02417	-588.30273	255.29407	539.55969	-538.12329	211.98924	493.82172	-644.52490	261.11963	480.32455	-759.48358	224.62616	207.20714	-660.65228	297.59146	158.60699	-624.50873	305.55084	158.85699	-554.74030	257.08411	163.76984	-591.15594	218.66087	173.02681	-701.77954	149.96255	207.46854	-673.88086	171.72212	153.43300	-791.61658	174.11606	188.62047	-528.30743	304.15094	146.30077	-517.86774	-72.74236	143.52280	-875.93585	-78.69500	141.22574	-882.58691	296.11499	144.58224	
348	6.940	-390.79675	114.79565	1519.28809	-519.48846	-70.95924	1252.73865	-524.32593	272.14932	1232.54895	-571.07623	85.10117	1040.53894	-782.61670	-6.48987	883.15875	-769.88300	215.80946	897.34326	-980.46362	87.64864	912.52209	-792.96869	-91.36253	762.30865	-677.33093	-37.42128	774.83392	-714.61945	-85.36302	675.85443	-610.53656	-61.26765	574.62292	-567.89740	46.56026	557.81549	-599.75073	-59.55847	533.88428	-551.53455	-13.04840	482.74109	-663.99634	-59.79075	469.48041	-750.35706	-15.67593	207.83516	-650.27936	-69.15117	161.47603	-608.35461	-75.92802	158.14488	-547.61230	-32.61317	162.97095	-597.06012	23.93079	168.73201	-705.17273	71.66579	211.16888	-670.43274	53.49991	156.46365	-787.12341	46.59644	178.29242	-793.16083	278.95776	756.64850	-654.87927	220.05664	769.49969	-687.58093	275.90689	667.62677	-619.35071	253.09023	585.68915	-551.54712	149.80859	551.18750	-591.06238	254.67909	541.24188	-540.82410	211.55269	495.33133	-646.97699	260.51208	481.46649	-759.64166	224.62122	207.10518	-660.68872	297.64398	158.64287	-624.53992	305.62631	158.81828	-554.84967	257.06790	163.81711	-591.24225	218.78203	173.10829	-701.85223	150.10934	207.68681	-673.87927	171.79268	153.63539	-791.68530	174.23070	188.55756	-528.25116	304.15759	146.32037	-517.86731	-72.73497	143.48997	-875.89197	-78.71462	141.23856	-882.59546	296.11459	144.57301	
349	6.960	-399.13861	113.87486	1538.26819	-523.80621	-72.11874	1268.99915	-527.68958	271.93134	1248.94263	-570.88873	84.47497	1056.41577	-777.89355	-9.90302	894.14606	-766.68927	215.18088	907.62756	-976.96985	86.38158	921.15039	-790.00330	-91.77837	768.74054	-674.35919	-37.66617	778.26208	-713.90826	-85.31870	680.15466	-612.43817	-60.69704	576.46375	-570.08704	46.78694	558.90460	-602.07587	-58.90824	535.23425	-553.92462	-12.60541	483.83527	-666.11639	-59.27795	470.35544	-750.61060	-15.80537	207.79141	-650.34338	-69.20969	161.41095	-608.39105	-76.02070	158.06386	-547.79138	-32.59391	162.97626	-597.18585	23.81605	168.84424	-705.33099	71.44319	211.17528	-670.49866	53.37682	156.54277	-787.15149	46.40837	178.14038	-791.23071	278.12076	763.80225	-652.81384	219.38556	773.03204	-688.07867	274.78568	671.86523	-621.82593	252.34656	588.32928	-554.19672	149.61720	552.39459	-594.04529	254.00743	542.97546	-543.73700	211.09030	496.91403	-649.62427	259.88287	482.67651	-759.79401	224.60275	206.99565	-660.71234	297.68790	158.68039	-624.57007	305.70255	158.79779	-554.97345	257.03867	163.86147	-591.36591	218.91872	173.20074	-701.98370	150.22679	207.91547	-673.88953	171.86508	153.83563	-791.74640	174.30573	188.45670	-528.21387	304.17133	146.34444	-517.86981	-72.71626	143.46141	-875.85999	-78.72679	141.24161	-882.61487	296.11963	144.57082	
350	6.980	-407.64001	112.88730	1557.07751	-528.22241	-73.28349	1285.18140	-531.28589	271.67026	1265.32800	-570.83008	83.85033	1072.29285	-773.07239	-13.31961	905.32538	-763.45142	214.61186	917.98425	-973.26367	84.93482	929.72998	-786.95160	-92.22626	775.16547	-671.38251	-37.75748	781.65240	-713.18256	-85.31522	684.47430	-614.43829	-60.12003	578.32971	-572.48792	47.26839	559.77771	-604.53180	-58.23677	536.62421	-556.48315	-12.07495	484.94406	-668.33911	-58.76067	471.24338	-750.84991	-15.91352	207.78592	-650.40161	-69.27324	161.31993	-608.43457	-76.09454	157.99277	-547.99860	-32.56225	162.98677	-597.32043	23.73198	168.94307	-705.48633	71.25266	211.21027	-670.55212	53.26601	156.65546	-787.20782	46.20550	177.98462	-789.35132	277.30063	770.97223	-650.89594	218.75453	776.52246	-688.67035	273.82947	676.19031	-624.50262	251.68143	591.01221	-556.93225	149.49220	553.67291	-597.24646	253.36942	544.74896	-546.85046	210.70622	498.56287	-652.48547	259.31015	483.93460	-759.96033	224.58900	206.89594	-660.72925	297.73380	158.69154	-624.59393	305.79422	158.78192	-555.09540	257.00006	163.89922	-591.51251	219.07576	173.31212	-702.17407	150.33624	208.16351	-673.92114	171.95723	154.02589	-791.80280	174.35197	188.33092	-528.20111	304.19427	146.37244	-517.87573	-72.68697	143.44827	-875.84344	-78.73242	141.23849	-882.63727	296.12766	144.57265	
351	7.000	-416.26947	111.83361	1575.65283	-532.71753	-74.44109	1301.22607	-535.14337	271.35858	1281.65735	-570.86469	83.25024	1088.13257	-768.16919	-16.59670	916.52612	-760.17084	214.10080	928.34875	-969.34424	83.34855	938.23877	-783.85077	-92.71360	781.53375	-668.41272	-37.80806	784.97656	-712.48590	-85.40390	688.76691	-616.54999	-59.62046	580.19977	-575.06830	47.88744	560.46210	-607.12372	-57.63648	538.02942	-559.18134	-11.58916	486.07581	-670.67072	-58.32705	472.12665	-751.10669	-16.01552	207.79198	-650.45551	-69.35793	161.19063	-608.49054	-76.16730	157.92468	-548.20856	-32.53687	162.99608	-597.45807	23.66208	169.03737	-705.66077	71.09319	211.30299	-670.59137	53.14660	156.81984	-787.29260	45.99493	177.83817	-787.50793	276.48367	778.08807	-649.08282	218.25021	779.94110	-689.36047	273.07101	680.56683	-627.38153	251.13815	593.69171	-559.76239	149.49399	555.04358	-600.64954	252.85132	546.55219	-550.14447	210.48758	500.26453	-655.56110	258.85623	485.20886	-760.15790	224.60323	206.81955	-660.74713	297.79471	158.65157	-624.61243	305.90982	158.75412	-555.20245	256.96072	163.93068	-591.66376	219.25485	173.44939	-702.40314	150.46446	208.43501	-673.97986	172.08768	154.20525	-791.85596	174.38686	188.20139	-528.20929	304.22495	146.40187	-517.88654	-72.65513	143.45270	-875.84003	-78.73328	141.23351	-882.65527	296.13562	144.57738	
352	7.020	-425.03186	110.71806	1593.93542	-537.27563	-75.57234	1317.05347	-539.26984	271.00296	1297.87769	-570.95569	82.70011	1103.88208	-763.19324	-19.59135	927.54889	-756.84045	213.63109	938.63550	-965.22137	81.70676	946.63910	-780.71368	-93.24361	787.80261	-665.46191	-37.90966	788.20148	-711.84088	-85.59973	693.00195	-618.76941	-59.23131	582.05634	-577.78845	48.51902	561.03857	-609.84222	-57.15910	539.42932	-561.98163	-11.22953	487.24216	-673.11658	-58.02729	472.99515	-751.40857	-16.12703	207.78328	-650.51031	-69.47239	161.02182	-608.55890	-76.25196	157.85379	-548.40051	-32.53280	163.00121	-597.59039	23.58961	169.13670	-705.87646	70.94494	211.46472	-670.62317	53.00148	157.04768	-787.40393	45.78184	177.71524	-785.67859	275.65683	785.09167	-647.33435	217.91487	783.26190	-690.14478	272.51077	684.95117	-630.45660	250.73669	596.33057	-562.70612	149.65125	556.51184	-604.23572	252.50121	548.37518	-553.59924	210.47452	502.00122	-658.83496	258.55148	486.46939	-760.39575	224.66974	206.77180	-660.77405	297.88583	158.54260	-624.63324	306.04999	158.70184	-555.29041	256.93359	163.96080	-591.80316	219.45413	173.61542	-702.64105	150.63640	208.72499	-674.06598	172.26959	154.38406	-791.90680	174.42847	188.08797	-528.22839	304.25839	146.42842	-517.90283	-72.63392	143.46826	-875.84393	-78.73128	141.22977	-882.66425	296.14139	144.58545	
353	7.040	-433.96771	109.54509	1611.86816	-541.88379	-76.65977	1332.57471	-543.64868	270.61850	1313.92920	-571.07233	82.21965	1119.47400	-758.14435	-22.20287	938.20947	-753.44232	213.17760	948.75171	-960.90063	80.11431	954.88434	-777.52881	-93.81361	793.94452	-662.53979	-38.09897	791.30145	-711.24396	-85.87767	697.16650	-621.08313	-58.93338	583.89221	-580.61755	49.07043	561.60944	-612.67108	-56.80141	540.81183	-564.85541	-11.00540	488.45526	-675.68176	-57.86330	473.85019	-751.76459	-16.25993	207.74228	-650.57269	-69.61710	160.82385	-608.63190	-76.35179	157.77777	-548.56372	-32.55489	163.00363	-597.70825	23.50082	169.25105	-706.14423	70.77506	211.68126	-670.65967	52.82262	157.33893	-787.53693	45.56749	177.62653	-783.83972	274.81680	791.94647	-645.62646	217.73085	786.47003	-691.01154	272.11414	689.30304	-633.71094	250.46313	598.91425	-565.79004	149.94615	558.06305	-607.98865	252.30803	550.20587	-557.19812	210.64465	503.75586	-662.27979	258.38519	487.70047	-760.67224	224.80446	206.74829	-660.81732	298.02032	158.35832	-624.66711	306.20828	158.62173	-555.36432	256.93152	163.99741	-591.92084	219.66888	173.80742	-702.86273	150.86838	209.02049	-674.17395	172.50475	154.58116	-791.95697	174.48839	188.00110	-528.24762	304.28781	146.44710	-517.92261	-72.63550	143.48439	-875.84961	-78.72810	141.22820	-882.66278	296.14435	144.59753	
